<?xml version="1.0" standalone="no"?>
<!DOCTYPE svg PUBLIC "-//W3C//DTD SVG 20010904//EN"
 "http://www.w3.org/TR/2001/REC-SVG-20010904/DTD/svg10.dtd">
<svg version="1.0" xmlns="http://www.w3.org/2000/svg"
 width="454.000000pt" height="454.000000pt" viewBox="0 0 454.000000 454.000000"
 preserveAspectRatio="xMidYMid meet">

<g transform="translate(0.000000,454.000000) scale(0.100000,-0.100000)"
fill="#000000" stroke="none">
<path d="M2705 3820 c-8 -9 -15 -29 -15 -43 0 -15 -10 -57 -21 -94 -12 -38
-30 -95 -40 -127 -11 -33 -19 -74 -19 -91 0 -17 -2 -34 -6 -37 -5 -6 -151 32
-171 45 -8 5 -11 53 -10 164 2 195 10 186 -154 173 -64 -4 -151 -17 -194 -27
-86 -20 -81 -14 -109 -123 -10 -36 -26 -96 -36 -135 -11 -38 -20 -85 -20 -102
0 -30 -3 -33 -29 -33 -27 0 -30 3 -45 68 -18 78 -36 181 -41 234 -6 61 -7 62
-114 53 -53 -4 -123 -8 -157 -9 -87 -2 -93 -9 -93 -121 0 -52 -3 -104 -6 -117
-2 -13 -7 -43 -10 -68 -13 -122 -18 -166 -21 -180 -1 -8 -3 -72 -3 -142 l-1
-128 -41 0 -42 0 7 73 c19 205 19 202 2 216 -23 19 -220 10 -262 -12 -57 -29
-58 -33 -47 -190 5 -78 9 -184 8 -234 -1 -51 -3 -129 -4 -173 0 -48 -5 -80
-11 -80 -6 0 -29 -9 -51 -19 -22 -11 -46 -18 -54 -15 -22 9 -28 -17 -8 -37 16
-16 18 -29 13 -73 -6 -56 -4 -294 3 -406 2 -36 12 -112 21 -170 10 -58 19
-125 21 -150 7 -86 15 -139 25 -165 6 -15 10 -42 10 -61 0 -19 4 -54 9 -77 12
-54 31 -188 36 -252 10 -135 37 -333 50 -376 4 -10 16 -21 28 -24 12 -3 171
-7 352 -10 182 -3 403 -8 493 -10 168 -5 821 -6 857 -1 74 10 229 20 279 18
39 -2 66 2 81 12 31 20 114 196 158 331 55 173 108 349 107 361 0 6 9 33 19
60 11 27 33 96 51 154 18 58 38 112 46 121 8 9 11 19 7 22 -4 4 6 49 21 100
36 118 42 143 62 251 23 123 23 151 2 150 -22 -2 -22 4 -2 44 11 22 23 32 39
32 25 0 50 24 41 39 -10 16 -92 39 -198 56 -57 9 -108 18 -115 20 -8 3 -8 20
2 67 18 83 66 336 69 365 2 13 6 26 9 30 4 3 7 17 7 30 0 25 15 94 35 159 20
64 -1 79 -119 90 l-77 7 6 50 c4 28 18 89 30 136 31 113 24 125 -72 135 -37 4
-97 14 -133 22 -88 20 -105 14 -131 -46 -21 -48 -47 -71 -34 -29 4 11 8 37 10
57 2 20 9 64 14 97 17 97 14 142 -9 155 -13 7 -73 10 -155 9 -112 -2 -137 -5
-150 -19z m250 -92 c-3 -35 -10 -92 -15 -128 -5 -36 -15 -117 -22 -180 l-13
-114 -80 -12 c-44 -7 -93 -15 -108 -18 l-28 -6 7 59 c6 55 5 59 -16 66 -20 6
-22 11 -15 63 3 32 21 102 40 157 18 55 36 117 39 138 l7 37 105 0 105 0 -6
-62z m-594 35 c1 -5 3 -70 4 -146 l3 -138 -47 7 c-50 7 -50 7 -68 5 -6 0 -24
-40 -39 -88 -15 -49 -45 -126 -67 -173 -22 -47 -43 -96 -48 -109 -5 -13 -12
-22 -15 -19 -10 11 -11 175 -1 216 13 51 7 58 -62 68 l-44 7 6 61 c3 34 13 84
23 111 19 57 19 56 29 113 4 23 13 46 19 50 34 21 304 52 307 35z m-623 -160
c12 -87 22 -138 38 -195 4 -13 -5 -18 -53 -23 -104 -13 -106 -16 -118 -210 -3
-49 -9 -114 -13 -144 l-7 -53 -65 0 c-49 0 -64 4 -62 14 2 7 6 71 8 142 2 70
9 185 15 255 6 69 14 164 18 211 l6 84 80 4 c44 2 82 5 84 8 2 2 16 4 31 4 25
0 26 -2 38 -97z m1487 -70 c50 -9 91 -17 92 -18 2 -1 -3 -24 -11 -51 -8 -27
-22 -86 -32 -131 -15 -71 -21 -83 -38 -83 -29 0 -40 -10 -56 -50 -14 -36 -139
-250 -146 -250 -3 0 -4 75 -3 167 0 155 -1 169 -19 183 -19 16 -19 18 -3 61
10 24 23 53 29 64 6 11 23 46 38 78 20 45 30 57 43 52 9 -4 57 -14 106 -22z
m-840 -109 c33 -8 92 -21 130 -29 39 -9 83 -20 98 -27 27 -10 28 -13 23 -62
-3 -28 -8 -77 -11 -108 -11 -120 -17 -140 -121 -433 -23 -63 -97 -339 -141
-520 -9 -38 -23 -74 -30 -78 -7 -4 -13 -18 -13 -30 0 -44 -8 -46 -170 -47 -85
-1 -165 -1 -177 0 -20 0 -22 4 -17 33 10 57 33 170 54 267 12 52 23 106 26
120 3 14 7 32 9 40 12 40 27 177 31 284 l4 119 74 151 c41 83 88 193 106 244
36 102 32 99 125 76z m-528 -132 c10 2 19 13 21 25 3 19 9 21 70 22 l67 0 -2
-242 c-3 -387 -6 -418 -88 -802 -13 -60 -26 -128 -30 -150 -3 -22 -9 -43 -13
-46 -4 -4 -76 -4 -160 -1 l-153 5 2 101 c1 101 23 379 34 447 4 20 8 54 10 75
2 22 8 71 14 109 20 126 29 208 36 315 12 186 9 177 75 182 36 2 50 -2 72 -20
14 -13 34 -22 45 -20z m1104 -72 c0 -14 2 -274 2 -578 l2 -552 -110 -1 c-129
-2 -207 1 -218 8 -4 3 -4 10 2 16 8 11 13 44 26 177 15 152 37 401 40 450 7
96 25 284 30 300 2 8 6 53 10 100 4 47 7 86 8 87 5 4 153 20 179 19 23 -1 28
-6 29 -26z m-1723 14 c22 -6 23 -9 17 -83 -13 -168 -14 -228 -14 -516 0 -165
0 -307 0 -315 1 -8 0 -36 -2 -62 -2 -45 -3 -46 -23 -33 -12 8 -54 49 -94 91
l-73 76 7 82 c4 44 6 90 5 101 -2 11 -3 27 -2 35 0 8 2 98 4 200 2 102 1 230
-2 284 -4 68 -2 104 6 115 7 10 34 18 75 22 34 3 65 7 68 7 3 1 15 -1 28 -4z
m2191 -43 c21 -1 23 -5 18 -38 -4 -37 -40 -233 -73 -398 -8 -44 -22 -116 -30
-159 -8 -43 -17 -83 -20 -88 -3 -5 -7 -19 -9 -31 -9 -77 -38 -244 -44 -257
-19 -37 -100 -91 -164 -109 -37 -10 -69 -15 -72 -12 -7 13 -3 671 5 676 4 3
11 21 15 42 8 44 54 137 107 217 21 32 48 79 59 104 18 38 23 43 31 29 13 -24
37 -21 49 7 10 20 17 23 58 21 25 -2 57 -4 70 -4z m-773 -218 c-4 -21 -7 -58
-7 -83 -1 -25 -5 -72 -10 -105 -4 -33 -11 -100 -14 -150 -5 -86 -19 -243 -31
-370 -4 -33 -10 -68 -15 -77 -5 -10 -10 -36 -12 -58 l-2 -40 -45 -1 c-58 -2
-134 2 -139 7 -2 2 0 14 6 27 6 12 18 51 26 87 19 82 74 298 94 370 8 30 35
114 60 185 25 72 54 156 65 188 23 66 32 74 24 20z m-1159 -47 c40 -1 74 -4
77 -7 2 -2 0 -31 -5 -64 -24 -171 -31 -224 -35 -265 -2 -25 -7 -79 -12 -121
-4 -42 -8 -142 -7 -222 l0 -145 -55 -5 c-80 -6 -121 15 -137 72 -11 38 -15
283 -13 719 l0 53 58 -6 c31 -4 89 -8 129 -9z m-489 -431 c0 -41 -4 -42 -35
-13 -29 27 -29 35 0 41 12 2 25 5 29 6 3 0 6 -15 6 -34z m2489 -56 c49 -6 92
-14 96 -19 7 -6 -45 -43 -108 -76 -11 -6 -46 -25 -77 -43 -32 -18 -58 -29 -58
-26 0 4 7 47 16 97 12 66 20 88 30 84 8 -3 53 -10 101 -17z m-2457 -99 c4 0
13 -13 19 -28 13 -30 191 -212 207 -212 5 0 25 -11 45 -24 36 -24 39 -25 350
-31 173 -3 373 -8 444 -10 132 -5 150 -5 475 -4 241 0 232 0 226 -10 -3 -4
-22 -7 -43 -5 -24 2 -44 -3 -55 -13 -9 -8 -33 -15 -53 -15 -27 0 -40 -6 -52
-24 -8 -13 -22 -24 -29 -24 -8 0 -13 -5 -11 -12 1 -6 -16 -15 -38 -20 -38 -8
-75 -38 -75 -60 0 -6 11 -3 25 6 13 9 33 16 44 16 11 0 27 10 35 22 19 27 31
18 22 -16 -5 -22 -32 -40 -61 -41 -6 0 -22 -10 -35 -23 -13 -12 -41 -27 -62
-33 -21 -5 -38 -14 -38 -20 0 -6 -9 -8 -20 -4 -23 7 -62 13 -105 15 -16 1 -25
4 -18 6 7 3 9 12 6 21 -4 10 -2 14 4 10 7 -5 9 0 6 14 -4 12 -11 18 -20 15 -8
-3 -21 -6 -29 -6 -7 0 -11 -6 -8 -14 5 -14 -22 -30 -36 -21 -4 3 -6 14 -3 25
4 14 0 20 -10 20 -8 0 -22 3 -31 6 -11 4 -19 -2 -25 -17 -5 -13 -10 -20 -10
-15 -1 5 -7 3 -15 -3 -11 -9 -15 -7 -19 10 -5 17 -9 19 -26 9 -12 -6 -26 -8
-31 -5 -6 3 -10 -5 -10 -18 0 -32 -28 -57 -41 -36 -6 10 -9 11 -9 1 0 -7 -4
-11 -9 -8 -12 8 -27 -14 -29 -41 -1 -37 -24 -34 358 -48 80 -3 150 -6 155 -5
6 0 60 2 120 3 61 2 116 6 123 11 15 9 52 -1 52 -15 0 -5 21 -10 48 -11 30 -1
14 -4 -43 -8 -89 -7 -825 -4 -1145 5 l-165 5 -90 67 c-93 70 -100 75 -170 133
-24 19 -58 46 -76 60 -90 68 -88 62 -99 204 -5 71 -10 168 -10 215 l0 86 41
-43 c23 -23 45 -42 49 -42z m2550 -7 c0 -5 -4 -15 -10 -23 -6 -9 -5 -17 3 -22
12 -7 11 -86 -3 -103 -4 -5 -10 -23 -13 -40 -4 -26 -25 -106 -69 -270 -14 -53
-81 -119 -111 -109 -24 8 -47 28 -47 42 0 15 -29 23 -56 16 -15 -4 -24 -2 -24
6 0 6 -4 8 -10 5 -5 -3 -19 -1 -31 5 -12 7 -47 13 -80 14 -44 1 -64 7 -83 24
-21 18 -30 20 -52 12 -21 -8 -31 -7 -45 6 -16 14 -20 14 -58 -8 -31 -18 -44
-21 -58 -12 -26 16 -30 37 -5 30 17 -6 20 -2 18 19 0 14 -4 25 -8 25 -3 0 -4
9 -1 20 3 11 9 20 15 20 5 0 4 9 -2 20 -10 18 -8 20 22 21 189 2 273 21 353
77 27 19 58 35 69 36 12 1 26 12 33 26 18 39 50 65 148 120 91 50 105 56 105
43z m-2597 -432 c7 -6 30 -25 52 -43 22 -19 94 -74 160 -123 66 -49 128 -97
138 -106 25 -22 57 -26 287 -29 107 -1 213 -3 235 -5 67 -5 719 -5 1079 0 381
5 373 3 464 87 24 22 45 38 47 36 3 -2 -6 -35 -19 -74 -19 -53 -31 -73 -53
-84 -15 -9 -91 -49 -168 -90 l-140 -74 -705 2 c-388 1 -796 4 -907 5 l-203 3
-77 75 c-163 155 -177 177 -192 294 -6 50 -14 100 -17 113 -7 24 -1 28 19 13z
m1127 -96 c0 -16 -6 -25 -15 -25 -18 0 -20 21 -3 38 17 17 18 16 18 -13z m210
-75 c-6 -11 -15 -18 -21 -14 -6 4 -6 11 2 20 17 21 31 17 19 -6z m1044 -5 c-7
-16 -24 -21 -24 -6 0 8 7 13 27 20 1 1 0 -6 -3 -14z m-44 -41 c-8 -8 -23 -20
-34 -27 -26 -14 -97 -16 -93 -3 4 12 93 45 121 46 16 0 16 -2 6 -16z m50 -211
c-5 -16 -18 -62 -30 -103 -12 -41 -26 -84 -30 -95 -10 -24 -40 -115 -43 -132
-2 -7 -7 -16 -11 -20 -5 -4 -5 19 -1 52 4 33 8 69 9 80 1 11 8 31 16 45 16 29
23 127 9 136 -5 3 -13 -6 -18 -19 -11 -29 -33 -39 -62 -28 -21 7 -20 9 12 28
19 11 45 24 59 28 14 4 27 11 30 14 8 11 54 41 62 41 4 0 3 -12 -2 -27z m-210
-93 c0 -5 -5 -10 -11 -10 -5 0 -7 5 -4 10 3 6 8 10 11 10 2 0 4 -4 4 -10z
m-1757 -27 c-7 -2 -21 -2 -30 0 -10 3 -4 5 12 5 17 0 24 -2 18 -5z m122 -3
c-7 -11 -95 -9 -95 2 0 4 23 8 51 8 30 0 48 -4 44 -10z m1570 1 c-14 -12 -85
-22 -85 -11 0 8 17 11 80 18 8 1 10 -1 5 -7z m-1289 -9 c-3 -3 -29 -9 -57 -13
-55 -9 -92 0 -49 12 29 8 113 9 106 1z m304 -2 c-8 -5 -19 -10 -25 -10 -5 0
-3 5 5 10 8 5 20 10 25 10 6 0 3 -5 -5 -10z m330 -5 c0 -10 -14 -12 -57 -8
-32 3 -86 5 -120 6 -35 0 -63 5 -63 9 0 5 54 8 120 7 92 -1 120 -4 120 -14z
m160 5 c0 -5 -4 -10 -9 -10 -6 0 -13 5 -16 10 -3 6 1 10 9 10 9 0 16 -4 16
-10z m50 6 c0 -3 -4 -8 -10 -11 -5 -3 -10 -1 -10 4 0 6 5 11 10 11 6 0 10 -2
10 -4z m210 -5 c0 -12 -27 -17 -67 -13 -51 6 -39 22 17 22 28 0 50 -4 50 -9z
m130 -1 c0 -12 -17 -12 -45 0 -17 7 -15 9 13 9 17 1 32 -3 32 -9z m-1207 -54
c2 -18 -2 -40 -11 -53 -18 -28 -36 -30 -27 -3 6 20 -6 26 -43 21 -10 -2 -10 2
0 19 7 11 18 18 24 16 7 -3 10 3 7 13 -4 14 1 19 20 19 20 0 26 -6 30 -32z
m384 16 c-10 -2 -16 -9 -14 -16 3 -7 -1 -13 -9 -13 -17 0 -17 3 -4 27 7 13 16
17 28 12 16 -6 16 -7 -1 -10z m109 -24 c-4 -24 -11 -47 -16 -52 -6 -6 -5 -14
1 -22 8 -10 6 -19 -5 -35 -15 -22 -15 -22 -13 7 2 25 -2 29 -25 32 -24 3 -26
7 -23 39 1 19 9 39 16 44 8 5 10 9 4 10 -9 1 36 15 59 18 5 0 6 -18 2 -41z
m-546 -53 c0 -8 -4 -15 -10 -15 -5 0 -10 7 -10 15 0 8 5 15 10 15 6 0 10 -7
10 -15z m-616 -258 c5 -27 4 -37 -3 -32 -6 3 -11 22 -11 42 0 44 5 41 14 -10z
m2060 -54 c-4 -16 -18 -49 -31 -75 l-23 -48 -56 0 -55 0 22 31 c15 22 27 29
41 25 21 -5 73 42 84 76 9 29 25 21 18 -9z m-2049 -26 c0 -15 7 -23 23 -25 12
-2 22 -9 22 -16 0 -15 58 -38 66 -25 3 5 12 5 23 -1 10 -5 22 -6 27 -1 5 4 25
0 44 -10 l35 -18 -92 -2 c-51 -1 -108 -2 -125 -3 -32 -1 -33 0 -38 49 -6 55
-2 90 8 80 4 -3 7 -16 7 -28z m788 -16 c9 -1 17 -7 17 -15 0 -17 43 -46 68
-46 11 0 25 -7 32 -15 12 -14 16 -13 37 6 19 19 23 20 23 6 0 -23 57 -23 89
-1 18 13 28 14 47 5 17 -7 24 -7 24 0 0 6 6 9 13 6 6 -2 30 8 52 23 58 39 74
43 102 25 13 -9 46 -19 73 -22 28 -3 50 -11 50 -17 0 -6 5 -4 10 4 8 13 13 13
31 2 16 -10 24 -11 29 -2 4 6 11 10 16 9 16 -5 74 12 74 21 0 5 8 8 18 7 14
-1 17 -7 14 -26 -4 -21 -2 -23 17 -18 11 3 23 1 26 -4 3 -5 14 -3 24 3 15 9
32 7 77 -7 l59 -19 -45 -7 c-69 -11 -336 -22 -520 -22 -193 -1 -665 12 -730
20 -25 3 -56 5 -70 4 -17 -1 -21 2 -13 10 6 6 17 11 24 12 8 2 20 6 27 10 7 5
14 2 18 -7 3 -8 12 -12 20 -9 8 3 12 8 9 13 -2 4 6 17 20 30 17 16 32 21 55
18 17 -3 33 -2 35 2 4 6 53 6 148 1z m-388 -71 c-3 -5 -13 -10 -21 -10 -8 0
-14 5 -14 10 0 6 9 10 21 10 11 0 17 -4 14 -10z m1448 -7 c-7 -2 -19 -2 -25 0
-7 3 -2 5 12 5 14 0 19 -2 13 -5z"/>
<path d="M2541 1996 c-9 -11 -9 -16 0 -21 10 -7 28 10 29 28 0 12 -17 8 -29
-7z"/>
<path d="M1414 1839 c4 -30 3 -31 -32 -24 -32 6 -34 5 -22 -10 11 -13 11 -18
0 -28 -10 -9 -11 -9 -6 1 4 6 3 12 -2 12 -5 0 -12 10 -16 23 -5 18 -8 20 -16
7 -5 -8 -10 -18 -10 -22 0 -8 121 -128 130 -128 4 0 20 17 35 38 16 20 41 49
57 64 29 28 30 48 3 48 -8 0 -21 12 -29 28 -12 23 -15 25 -21 10 -9 -22 -41
-24 -49 -3 -10 27 -26 16 -22 -16z"/>
<path d="M3370 2190 c0 -5 4 -10 9 -10 6 0 13 5 16 10 3 6 -1 10 -9 10 -9 0
-16 -4 -16 -10z"/>
</g>
</svg>
